<svg width="32" height="32" xmlns="http://www.w3.org/2000/svg" viewBox="0 0 32 32">
  <defs>
    <linearGradient id="africacdc-grad" x1="0%" y1="0%" x2="100%" y2="100%">
      <stop offset="0%" style="stop-color:#348F41;stop-opacity:1" />
      <stop offset="50%" style="stop-color:#4CAF50;stop-opacity:1" />
      <stop offset="100%" style="stop-color:#B4A269;stop-opacity:1" />
    </linearGradient>
    <filter id="shadow" x="-50%" y="-50%" width="200%" height="200%">
      <feDropShadow dx="1" dy="1" stdDeviation="1" flood-color="#000" flood-opacity="0.3"/>
    </filter>
  </defs>

  <!-- Background circle with gradient -->
  <circle cx="16" cy="16" r="15" fill="url(#africacdc-grad)" filter="url(#shadow)"/>

  <!-- Africa continent outline (simplified) -->
  <path d="M10 8 C12 6, 15 6, 18 7 C20 8, 22 10, 23 13 C24 16, 23 19, 21 22 C19 24, 16 25, 13 24 C10 23, 8 20, 7 17 C6 14, 7 11, 8 9 Z"
        fill="none" stroke="white" stroke-width="1.5" opacity="0.9"/>

  <!-- Medical cross symbol -->
  <rect x="14.5" y="11" width="3" height="10" fill="white" rx="1"/>
  <rect x="10" y="14.5" width="12" height="3" fill="white" rx="1"/>

  <!-- Inner circle for depth -->
  <circle cx="16" cy="16" r="13" fill="none" stroke="rgba(255,255,255,0.2)" stroke-width="0.5"/>
</svg>
